<svg width="22" height="22" viewBox="0 0 22 22" fill="none" xmlns="http://www.w3.org/2000/svg">
<path d="M14.2083 12.8333H13.4842L13.2275 12.5858C14.1569 11.5079 14.6677 10.1316 14.6667 8.70834C14.6667 7.52989 14.3172 6.37791 13.6625 5.39806C13.0078 4.41822 12.0772 3.65453 10.9885 3.20355C9.89975 2.75258 8.70173 2.63459 7.54592 2.86449C6.39012 3.09439 5.32845 3.66187 4.49516 4.49516C3.66187 5.32845 3.09439 6.39012 2.86449 7.54592C2.63459 8.70173 2.75258 9.89975 3.20355 10.9885C3.65453 12.0772 4.41822 13.0078 5.39806 13.6625C6.37791 14.3172 7.52989 14.6667 8.70834 14.6667C10.1842 14.6667 11.5408 14.1258 12.5858 13.2275L12.8333 13.4842V14.2083L17.4167 18.7825L18.7825 17.4167L14.2083 12.8333ZM8.70834 12.8333C6.42584 12.8333 4.58334 10.9908 4.58334 8.70834C4.58334 6.42584 6.42584 4.58334 8.70834 4.58334C10.9908 4.58334 12.8333 6.42584 12.8333 8.70834C12.8333 10.9908 10.9908 12.8333 8.70834 12.8333Z" fill="#666464"/>
</svg>
