<svg width="23" height="23" viewBox="0 0 23 23" fill="none" xmlns="http://www.w3.org/2000/svg">
<path d="M17.3784 10.5417C17.9352 15.6927 20.125 17.25 20.125 17.25H2.875C2.875 17.25 5.75 15.2059 5.75 8.04999C5.75 6.4237 6.35567 4.86353 7.43379 3.71353C8.51287 2.56353 9.97625 1.91666 11.5 1.91666C11.823 1.91666 12.144 1.94541 12.4583 2.00291M13.1579 20.125C12.9896 20.4157 12.7479 20.657 12.4569 20.8248C12.1659 20.9926 11.8359 21.0809 11.5 21.0809C11.1641 21.0809 10.8341 20.9926 10.5431 20.8248C10.2521 20.657 10.0104 20.4157 9.84208 20.125M18.2083 7.66666C18.9708 7.66666 19.7021 7.36376 20.2413 6.82459C20.7804 6.28542 21.0833 5.55415 21.0833 4.79166C21.0833 4.02916 20.7804 3.29789 20.2413 2.75872C19.7021 2.21956 18.9708 1.91666 18.2083 1.91666C17.4458 1.91666 16.7146 2.21956 16.1754 2.75872C15.6362 3.29789 15.3333 4.02916 15.3333 4.79166C15.3333 5.55415 15.6362 6.28542 16.1754 6.82459C16.7146 7.36376 17.4458 7.66666 18.2083 7.66666Z" stroke="#666464" stroke-width="1.5" stroke-linecap="round" stroke-linejoin="round"/>
</svg>
