<svg width="22" height="30" viewBox="0 0 22 30" fill="none" xmlns="http://www.w3.org/2000/svg">
<g clip-path="url(#clip0_92_199)">
<path d="M10.4214 15.0059C10.1349 14.0684 10.1406 12.2578 10.3068 12.2578C10.788 12.2578 10.7422 14.4199 10.4214 15.0059ZM10.324 17.7715C9.88281 18.9551 9.33281 20.3086 8.69688 21.4453C9.74531 21.0352 10.9312 20.4375 12.3005 20.1621C11.5729 19.5996 10.874 18.791 10.324 17.7715ZM4.93281 25.084C4.93281 25.1309 5.68906 24.7676 6.93229 22.7285C6.54844 23.0977 5.2651 24.1641 4.93281 25.084ZM14.2083 9.375H22V28.5938C22 29.373 21.387 30 20.625 30H1.375C0.613021 30 0 29.373 0 28.5938V1.40625C0 0.626953 0.613021 0 1.375 0H12.8333V7.96875C12.8333 8.74219 13.4521 9.375 14.2083 9.375ZM13.75 19.4414C12.6042 18.7266 11.8422 17.7422 11.3036 16.2891C11.5615 15.2051 11.9682 13.5586 11.6589 12.5273C11.3896 10.8047 9.22969 10.9746 8.92031 12.1289C8.63385 13.2012 8.8974 14.7129 9.38438 16.6406C8.71979 18.2578 7.7401 20.4258 7.04688 21.668C7.04115 21.668 7.04115 21.6738 7.03542 21.6738C5.48281 22.4883 2.81875 24.2812 3.91302 25.6582C4.23385 26.0625 4.82969 26.2441 5.14479 26.2441C6.17031 26.2441 7.1901 25.1895 8.64531 22.623C10.1234 22.125 11.7448 21.5039 13.1714 21.2637C14.4146 21.9551 15.8698 22.4062 16.838 22.4062C18.5109 22.4062 18.6255 20.5312 17.9667 19.8633C17.1703 19.0664 14.8557 19.2949 13.75 19.4414ZM21.599 6.15234L15.9844 0.410156C15.7266 0.146484 15.3771 0 15.0104 0H14.6667V7.5H22V7.14258C22 6.77344 21.8568 6.41602 21.599 6.15234ZM17.3536 21.1113C17.5885 20.9531 17.2104 20.4141 14.9016 20.584C17.0271 21.5098 17.3536 21.1113 17.3536 21.1113Z" fill="#666464"/>
</g>
<defs>
<clipPath id="clip0_92_199">
<rect width="22" height="30" fill="white"/>
</clipPath>
</defs>
</svg>
