<svg width="17" height="17" viewBox="0 0 17 17" fill="none" xmlns="http://www.w3.org/2000/svg">
<path d="M12.0415 8.49996V2.12496C12.0415 1.9371 11.9669 1.75693 11.834 1.62409C11.7012 1.49125 11.521 1.41663 11.3332 1.41663H2.12484C1.93698 1.41663 1.75681 1.49125 1.62397 1.62409C1.49113 1.75693 1.4165 1.9371 1.4165 2.12496V12.0416L4.24984 9.20829H11.3332C11.521 9.20829 11.7012 9.13367 11.834 9.00083C11.9669 8.86799 12.0415 8.68782 12.0415 8.49996ZM14.8748 4.24996H13.4582V10.625H4.24984V12.0416C4.24984 12.2295 4.32447 12.4097 4.4573 12.5425C4.59014 12.6753 4.77031 12.75 4.95817 12.75H12.7498L15.5832 15.5833V4.95829C15.5832 4.77043 15.5085 4.59026 15.3757 4.45743C15.2429 4.32459 15.0627 4.24996 14.8748 4.24996Z" fill="black"/>
</svg>
