<svg width="23" height="17" viewBox="0 0 23 17" fill="none" xmlns="http://www.w3.org/2000/svg">
<path fill-rule="evenodd" clip-rule="evenodd" d="M7.054 1.2466C6.8571 1.04956 6.62332 0.893223 6.36601 0.786526C6.1087 0.67983 5.83289 0.62486 5.55433 0.624756C5.27577 0.624652 4.99992 0.679414 4.74252 0.785918C4.48513 0.892421 4.25123 1.04858 4.05419 1.24547L3.65819 1.64148C3.27528 1.53244 2.87012 1.52822 2.48502 1.62924C2.09993 1.73027 1.74901 1.93283 1.46894 2.21579C1.04835 2.64065 0.812424 3.21433 0.812424 3.81216C0.812424 4.41 1.04835 4.98367 1.46894 5.40854L1.9375 5.88048V11.875H0.25V13H1.40313C1.12377 13.2737 0.932273 13.6245 0.853043 14.0074C0.773812 14.3904 0.810442 14.7883 0.958262 15.1504C1.10608 15.5125 1.35839 15.8223 1.68302 16.0404C2.00765 16.2586 2.38988 16.375 2.78097 16.375C3.17206 16.375 3.55429 16.2586 3.87892 16.0404C4.20355 15.8223 4.45586 15.5125 4.60368 15.1504C4.75149 14.7883 4.78813 14.3904 4.70889 14.0074C4.62966 13.6245 4.43816 13.2737 4.15881 13H18.8412C18.5618 13.2737 18.3703 13.6245 18.2911 14.0074C18.2119 14.3904 18.2485 14.7883 18.3963 15.1504C18.5441 15.5125 18.7965 15.8223 19.1211 16.0404C19.4457 16.2586 19.8279 16.375 20.219 16.375C20.6101 16.375 20.9924 16.2586 21.317 16.0404C21.6416 15.8223 21.8939 15.5125 22.0417 15.1504C22.1896 14.7883 22.2262 14.3904 22.147 14.0074C22.0677 13.6245 21.8762 13.2737 21.5969 13H22.75V11.875H20.5V10.124C20.983 10.0031 21.4117 9.7239 21.7175 9.33098C22.0234 8.93806 22.1888 8.45403 22.1875 7.9561C22.1875 6.72423 21.1969 5.72466 19.9746 5.72466H8.18688C8.16411 5.72472 8.14155 5.72028 8.12051 5.71159C8.09946 5.70291 8.08034 5.69014 8.06425 5.67404L7.85837 5.46591L8.06594 5.25948C8.26301 5.06258 8.41936 4.82878 8.52605 4.57144C8.63274 4.3141 8.68768 4.03826 8.68773 3.75969C8.68779 3.48111 8.63295 3.20525 8.52635 2.94787C8.41976 2.69049 8.2635 2.45663 8.0665 2.25966L7.054 1.24716V1.2466ZM7.06525 4.66829L7.27056 4.46354C7.36309 4.37108 7.43648 4.26129 7.48656 4.14045C7.53664 4.01961 7.56241 3.89009 7.56241 3.75929C7.56241 3.62848 7.53664 3.49896 7.48656 3.37812C7.43648 3.25729 7.36309 3.1475 7.27056 3.05504L6.25806 2.04254C6.0714 1.85567 5.81817 1.75057 5.55405 1.75036C5.28992 1.75015 5.03652 1.85484 4.84956 2.04141L4.65269 2.23829L7.06581 4.66829H7.06525ZM19.375 11.875H3.0625V7.01279L6.02969 10.0002C6.14894 10.12 6.30981 10.1875 6.478 10.1875H19.375V11.875Z" fill="#27C137"/>
</svg>
